<svg width="448" height="448" viewBox="0 0 448 448" fill="none" xmlns="http://www.w3.org/2000/svg">
<path d="M349.705 14.4125L433.587 98.2945C442.495 107.202 447.5 119.284 447.5 131.882V400C447.5 426.234 426.234 447.5 400 447.5H48C21.7661 447.5 0.5 426.234 0.5 400V48C0.5 21.7661 21.7661 0.5 48 0.5H316.118C328.716 0.500066 340.798 5.50456 349.705 14.4125ZM159.5 320C159.5 355.622 188.378 384.5 224 384.5C259.622 384.5 288.5 355.622 288.5 320C288.5 284.378 259.622 255.5 224 255.5C188.378 255.5 159.5 284.378 159.5 320ZM320.5 180V79.48C320.5 77.8385 320.177 76.213 319.549 74.6964C318.92 73.1799 317.999 71.8019 316.839 70.6414L313.359 67.1615C311.015 64.8167 307.836 63.5 304.52 63.5H76C69.0969 63.5 63.5 69.0969 63.5 76V180C63.5 186.903 69.0969 192.5 76 192.5H308C314.903 192.5 320.5 186.903 320.5 180Z" fill="#555555" stroke="black"/>
</svg>
